G75*
G70*
%OFA0B0*%
%FSLAX24Y24*%
%IPPOS*%
%LPD*%
%AMOC8*
5,1,8,0,0,1.08239X$1,22.5*
%
%ADD10C,0.0000*%
D10*
X000101Y000262D02*
X000101Y020258D01*
X018601Y020262D01*
X018601Y000262D01*
X000101Y000262D01*
X001510Y002262D02*
X001512Y002310D01*
X001518Y002358D01*
X001528Y002405D01*
X001541Y002451D01*
X001559Y002496D01*
X001579Y002540D01*
X001604Y002582D01*
X001632Y002621D01*
X001662Y002658D01*
X001696Y002692D01*
X001733Y002724D01*
X001771Y002753D01*
X001812Y002778D01*
X001855Y002800D01*
X001900Y002818D01*
X001946Y002832D01*
X001993Y002843D01*
X002041Y002850D01*
X002089Y002853D01*
X002137Y002852D01*
X002185Y002847D01*
X002233Y002838D01*
X002279Y002826D01*
X002324Y002809D01*
X002368Y002789D01*
X002410Y002766D01*
X002450Y002739D01*
X002488Y002709D01*
X002523Y002676D01*
X002555Y002640D01*
X002585Y002602D01*
X002611Y002561D01*
X002633Y002518D01*
X002653Y002474D01*
X002668Y002429D01*
X002680Y002382D01*
X002688Y002334D01*
X002692Y002286D01*
X002692Y002238D01*
X002688Y002190D01*
X002680Y002142D01*
X002668Y002095D01*
X002653Y002050D01*
X002633Y002006D01*
X002611Y001963D01*
X002585Y001922D01*
X002555Y001884D01*
X002523Y001848D01*
X002488Y001815D01*
X002450Y001785D01*
X002410Y001758D01*
X002368Y001735D01*
X002324Y001715D01*
X002279Y001698D01*
X002233Y001686D01*
X002185Y001677D01*
X002137Y001672D01*
X002089Y001671D01*
X002041Y001674D01*
X001993Y001681D01*
X001946Y001692D01*
X001900Y001706D01*
X001855Y001724D01*
X001812Y001746D01*
X001771Y001771D01*
X001733Y001800D01*
X001696Y001832D01*
X001662Y001866D01*
X001632Y001903D01*
X001604Y001942D01*
X001579Y001984D01*
X001559Y002028D01*
X001541Y002073D01*
X001528Y002119D01*
X001518Y002166D01*
X001512Y002214D01*
X001510Y002262D01*
X001510Y018262D02*
X001512Y018310D01*
X001518Y018358D01*
X001528Y018405D01*
X001541Y018451D01*
X001559Y018496D01*
X001579Y018540D01*
X001604Y018582D01*
X001632Y018621D01*
X001662Y018658D01*
X001696Y018692D01*
X001733Y018724D01*
X001771Y018753D01*
X001812Y018778D01*
X001855Y018800D01*
X001900Y018818D01*
X001946Y018832D01*
X001993Y018843D01*
X002041Y018850D01*
X002089Y018853D01*
X002137Y018852D01*
X002185Y018847D01*
X002233Y018838D01*
X002279Y018826D01*
X002324Y018809D01*
X002368Y018789D01*
X002410Y018766D01*
X002450Y018739D01*
X002488Y018709D01*
X002523Y018676D01*
X002555Y018640D01*
X002585Y018602D01*
X002611Y018561D01*
X002633Y018518D01*
X002653Y018474D01*
X002668Y018429D01*
X002680Y018382D01*
X002688Y018334D01*
X002692Y018286D01*
X002692Y018238D01*
X002688Y018190D01*
X002680Y018142D01*
X002668Y018095D01*
X002653Y018050D01*
X002633Y018006D01*
X002611Y017963D01*
X002585Y017922D01*
X002555Y017884D01*
X002523Y017848D01*
X002488Y017815D01*
X002450Y017785D01*
X002410Y017758D01*
X002368Y017735D01*
X002324Y017715D01*
X002279Y017698D01*
X002233Y017686D01*
X002185Y017677D01*
X002137Y017672D01*
X002089Y017671D01*
X002041Y017674D01*
X001993Y017681D01*
X001946Y017692D01*
X001900Y017706D01*
X001855Y017724D01*
X001812Y017746D01*
X001771Y017771D01*
X001733Y017800D01*
X001696Y017832D01*
X001662Y017866D01*
X001632Y017903D01*
X001604Y017942D01*
X001579Y017984D01*
X001559Y018028D01*
X001541Y018073D01*
X001528Y018119D01*
X001518Y018166D01*
X001512Y018214D01*
X001510Y018262D01*
X016010Y018262D02*
X016012Y018310D01*
X016018Y018358D01*
X016028Y018405D01*
X016041Y018451D01*
X016059Y018496D01*
X016079Y018540D01*
X016104Y018582D01*
X016132Y018621D01*
X016162Y018658D01*
X016196Y018692D01*
X016233Y018724D01*
X016271Y018753D01*
X016312Y018778D01*
X016355Y018800D01*
X016400Y018818D01*
X016446Y018832D01*
X016493Y018843D01*
X016541Y018850D01*
X016589Y018853D01*
X016637Y018852D01*
X016685Y018847D01*
X016733Y018838D01*
X016779Y018826D01*
X016824Y018809D01*
X016868Y018789D01*
X016910Y018766D01*
X016950Y018739D01*
X016988Y018709D01*
X017023Y018676D01*
X017055Y018640D01*
X017085Y018602D01*
X017111Y018561D01*
X017133Y018518D01*
X017153Y018474D01*
X017168Y018429D01*
X017180Y018382D01*
X017188Y018334D01*
X017192Y018286D01*
X017192Y018238D01*
X017188Y018190D01*
X017180Y018142D01*
X017168Y018095D01*
X017153Y018050D01*
X017133Y018006D01*
X017111Y017963D01*
X017085Y017922D01*
X017055Y017884D01*
X017023Y017848D01*
X016988Y017815D01*
X016950Y017785D01*
X016910Y017758D01*
X016868Y017735D01*
X016824Y017715D01*
X016779Y017698D01*
X016733Y017686D01*
X016685Y017677D01*
X016637Y017672D01*
X016589Y017671D01*
X016541Y017674D01*
X016493Y017681D01*
X016446Y017692D01*
X016400Y017706D01*
X016355Y017724D01*
X016312Y017746D01*
X016271Y017771D01*
X016233Y017800D01*
X016196Y017832D01*
X016162Y017866D01*
X016132Y017903D01*
X016104Y017942D01*
X016079Y017984D01*
X016059Y018028D01*
X016041Y018073D01*
X016028Y018119D01*
X016018Y018166D01*
X016012Y018214D01*
X016010Y018262D01*
X016010Y002262D02*
X016012Y002310D01*
X016018Y002358D01*
X016028Y002405D01*
X016041Y002451D01*
X016059Y002496D01*
X016079Y002540D01*
X016104Y002582D01*
X016132Y002621D01*
X016162Y002658D01*
X016196Y002692D01*
X016233Y002724D01*
X016271Y002753D01*
X016312Y002778D01*
X016355Y002800D01*
X016400Y002818D01*
X016446Y002832D01*
X016493Y002843D01*
X016541Y002850D01*
X016589Y002853D01*
X016637Y002852D01*
X016685Y002847D01*
X016733Y002838D01*
X016779Y002826D01*
X016824Y002809D01*
X016868Y002789D01*
X016910Y002766D01*
X016950Y002739D01*
X016988Y002709D01*
X017023Y002676D01*
X017055Y002640D01*
X017085Y002602D01*
X017111Y002561D01*
X017133Y002518D01*
X017153Y002474D01*
X017168Y002429D01*
X017180Y002382D01*
X017188Y002334D01*
X017192Y002286D01*
X017192Y002238D01*
X017188Y002190D01*
X017180Y002142D01*
X017168Y002095D01*
X017153Y002050D01*
X017133Y002006D01*
X017111Y001963D01*
X017085Y001922D01*
X017055Y001884D01*
X017023Y001848D01*
X016988Y001815D01*
X016950Y001785D01*
X016910Y001758D01*
X016868Y001735D01*
X016824Y001715D01*
X016779Y001698D01*
X016733Y001686D01*
X016685Y001677D01*
X016637Y001672D01*
X016589Y001671D01*
X016541Y001674D01*
X016493Y001681D01*
X016446Y001692D01*
X016400Y001706D01*
X016355Y001724D01*
X016312Y001746D01*
X016271Y001771D01*
X016233Y001800D01*
X016196Y001832D01*
X016162Y001866D01*
X016132Y001903D01*
X016104Y001942D01*
X016079Y001984D01*
X016059Y002028D01*
X016041Y002073D01*
X016028Y002119D01*
X016018Y002166D01*
X016012Y002214D01*
X016010Y002262D01*
M02*
