G75*
G70*
%OFA0B0*%
%FSLAX24Y24*%
%IPPOS*%
%LPD*%
%AMOC8*
5,1,8,0,0,1.08239X$1,22.5*
%
%ADD10C,0.0030*%
%ADD11C,0.0040*%
%ADD12C,0.0060*%
%ADD13R,0.0340X0.0240*%
%ADD14C,0.0080*%
D10*
X004365Y000484D02*
X004427Y000422D01*
X004489Y000422D01*
X004551Y000484D01*
X004551Y000607D01*
X004612Y000669D01*
X004674Y000669D01*
X004736Y000607D01*
X004736Y000484D01*
X004674Y000422D01*
X004365Y000484D02*
X004365Y000607D01*
X004427Y000669D01*
X004365Y000790D02*
X004365Y000976D01*
X004427Y001037D01*
X004674Y001037D01*
X004736Y000976D01*
X004736Y000790D01*
X004365Y000790D01*
X004489Y001159D02*
X004365Y001282D01*
X004489Y001406D01*
X004736Y001406D01*
X004551Y001406D02*
X004551Y001159D01*
X004489Y001159D02*
X004736Y001159D01*
X005365Y001037D02*
X005612Y001037D01*
X005736Y000914D01*
X005612Y000790D01*
X005365Y000790D01*
X005551Y001159D02*
X005551Y001406D01*
X005674Y001282D02*
X005427Y001282D01*
X006365Y001344D02*
X006365Y001159D01*
X006736Y001159D01*
X006736Y001344D01*
X006674Y001406D01*
X006427Y001406D01*
X006365Y001344D01*
X006365Y001037D02*
X006736Y001037D01*
X006365Y000790D01*
X006736Y000790D01*
X006674Y000669D02*
X006736Y000607D01*
X006736Y000484D01*
X006674Y000422D01*
X006427Y000422D01*
X006365Y000484D01*
X006365Y000607D01*
X006427Y000669D01*
X006551Y000669D02*
X006551Y000546D01*
X006551Y000669D02*
X006674Y000669D01*
X007365Y000607D02*
X007365Y000484D01*
X007427Y000422D01*
X007489Y000422D01*
X007551Y000484D01*
X007551Y000607D01*
X007612Y000669D01*
X007674Y000669D01*
X007736Y000607D01*
X007736Y000484D01*
X007674Y000422D01*
X007674Y000790D02*
X007736Y000852D01*
X007736Y000976D01*
X007674Y001037D01*
X007736Y001159D02*
X007736Y001406D01*
X007736Y001159D02*
X007365Y001159D01*
X007427Y001037D02*
X007365Y000976D01*
X007365Y000852D01*
X007427Y000790D01*
X007674Y000790D01*
X007427Y000669D02*
X007365Y000607D01*
X008365Y000790D02*
X008365Y000976D01*
X008427Y001037D01*
X008551Y001037D01*
X008612Y000976D01*
X008612Y000790D01*
X008736Y000790D02*
X008365Y000790D01*
X008489Y001159D02*
X008365Y001282D01*
X008736Y001282D01*
X008736Y001159D02*
X008736Y001406D01*
X009365Y001344D02*
X009365Y001220D01*
X009427Y001159D01*
X009427Y001037D02*
X009551Y001037D01*
X009612Y000976D01*
X009612Y000790D01*
X009736Y000790D02*
X009365Y000790D01*
X009365Y000976D01*
X009427Y001037D01*
X009365Y001344D02*
X009427Y001406D01*
X009489Y001406D01*
X009736Y001159D01*
X009736Y001406D01*
X007674Y018922D02*
X007736Y018984D01*
X007736Y019107D01*
X007674Y019169D01*
X007612Y019169D01*
X007551Y019107D01*
X007551Y018984D01*
X007489Y018922D01*
X007427Y018922D01*
X007365Y018984D01*
X007365Y019107D01*
X007427Y019169D01*
X007427Y019290D02*
X007674Y019290D01*
X007736Y019352D01*
X007736Y019476D01*
X007674Y019537D01*
X007736Y019659D02*
X007736Y019906D01*
X007736Y019659D02*
X007365Y019659D01*
X007427Y019537D02*
X007365Y019476D01*
X007365Y019352D01*
X007427Y019290D01*
X006736Y019290D02*
X006365Y019290D01*
X006736Y019537D01*
X006365Y019537D01*
X006365Y019659D02*
X006365Y019844D01*
X006427Y019906D01*
X006674Y019906D01*
X006736Y019844D01*
X006736Y019659D01*
X006365Y019659D01*
X006427Y019169D02*
X006365Y019107D01*
X006365Y018984D01*
X006427Y018922D01*
X006674Y018922D01*
X006736Y018984D01*
X006736Y019107D01*
X006674Y019169D01*
X006551Y019169D01*
X006551Y019046D01*
X005736Y019414D02*
X005612Y019290D01*
X005365Y019290D01*
X005365Y019537D02*
X005612Y019537D01*
X005736Y019414D01*
X005551Y019659D02*
X005551Y019906D01*
X005674Y019782D02*
X005427Y019782D01*
X004736Y019659D02*
X004489Y019659D01*
X004365Y019782D01*
X004489Y019906D01*
X004736Y019906D01*
X004551Y019906D02*
X004551Y019659D01*
X004674Y019537D02*
X004427Y019537D01*
X004365Y019476D01*
X004365Y019290D01*
X004736Y019290D01*
X004736Y019476D01*
X004674Y019537D01*
X004674Y019169D02*
X004736Y019107D01*
X004736Y018984D01*
X004674Y018922D01*
X004551Y018984D02*
X004551Y019107D01*
X004612Y019169D01*
X004674Y019169D01*
X004551Y018984D02*
X004489Y018922D01*
X004427Y018922D01*
X004365Y018984D01*
X004365Y019107D01*
X004427Y019169D01*
X008365Y019290D02*
X008365Y019476D01*
X008427Y019537D01*
X008551Y019537D01*
X008612Y019476D01*
X008612Y019290D01*
X008736Y019290D02*
X008365Y019290D01*
X008489Y019659D02*
X008365Y019782D01*
X008736Y019782D01*
X008736Y019659D02*
X008736Y019906D01*
X009365Y019844D02*
X009365Y019720D01*
X009427Y019659D01*
X009427Y019537D02*
X009551Y019537D01*
X009612Y019476D01*
X009612Y019290D01*
X009736Y019290D02*
X009365Y019290D01*
X009365Y019476D01*
X009427Y019537D01*
X009365Y019844D02*
X009427Y019906D01*
X009489Y019906D01*
X009736Y019659D01*
X009736Y019906D01*
D11*
X010871Y019992D02*
X010871Y019532D01*
X011178Y019532D01*
X011331Y019532D02*
X011638Y019992D01*
X011791Y019992D02*
X012098Y019992D01*
X011945Y019992D02*
X011945Y019532D01*
X011638Y019532D02*
X011331Y019992D01*
X011178Y019992D02*
X010871Y019992D01*
X010871Y019762D02*
X011024Y019762D01*
X012252Y019762D02*
X012405Y019762D01*
X012252Y019992D02*
X012252Y019532D01*
X012559Y019532D01*
X012712Y019532D02*
X012712Y019992D01*
X012942Y019992D01*
X013019Y019916D01*
X013019Y019762D01*
X012942Y019685D01*
X012712Y019685D01*
X012866Y019685D02*
X013019Y019532D01*
X013173Y019532D02*
X013173Y019992D01*
X013479Y019532D01*
X013479Y019992D01*
X013633Y019839D02*
X013786Y019992D01*
X013940Y019839D01*
X013940Y019532D01*
X014093Y019532D02*
X014400Y019532D01*
X014093Y019532D02*
X014093Y019992D01*
X013940Y019762D02*
X013633Y019762D01*
X013633Y019839D02*
X013633Y019532D01*
X012559Y019992D02*
X012252Y019992D01*
X011014Y018262D02*
X010896Y018262D01*
X011014Y018144D01*
X010935Y018183D02*
X010896Y018144D01*
X010778Y018144D01*
X010778Y018262D02*
X010896Y018262D01*
X010896Y018144D02*
X010896Y017750D01*
X010778Y017750D01*
X010778Y017632D02*
X010896Y017632D01*
X011014Y017750D01*
X010935Y017711D02*
X010896Y017750D01*
X010896Y017632D02*
X011014Y017632D01*
X017370Y016544D02*
X017370Y016391D01*
X017447Y016314D01*
X017754Y016314D01*
X017447Y016621D01*
X017754Y016621D01*
X017831Y016544D01*
X017831Y016391D01*
X017754Y016314D01*
X017754Y016161D02*
X017831Y016161D01*
X017831Y016084D01*
X017754Y016084D01*
X017754Y016161D01*
X017831Y015930D02*
X017831Y015623D01*
X017831Y015777D02*
X017370Y015777D01*
X017524Y015623D01*
X017524Y015010D02*
X017831Y014856D01*
X017524Y014703D01*
X017601Y014549D02*
X017524Y014473D01*
X017524Y014319D01*
X017601Y014242D01*
X017754Y014242D01*
X017831Y014319D01*
X017831Y014473D01*
X017677Y014549D02*
X017677Y014242D01*
X017601Y014089D02*
X017677Y014012D01*
X017677Y013782D01*
X017677Y013935D02*
X017831Y014089D01*
X017601Y014089D02*
X017447Y014089D01*
X017370Y014012D01*
X017370Y013782D01*
X017831Y013782D01*
X017677Y014549D02*
X017601Y014549D01*
X017601Y012628D02*
X017447Y012628D01*
X017370Y012551D01*
X017370Y012321D01*
X017831Y012321D01*
X017677Y012321D02*
X017677Y012551D01*
X017601Y012628D01*
X017677Y012474D02*
X017831Y012628D01*
X017754Y012167D02*
X017447Y012167D01*
X017370Y012091D01*
X017370Y011937D01*
X017447Y011861D01*
X017754Y011861D01*
X017831Y011937D01*
X017831Y012091D01*
X017754Y012167D01*
X017370Y011707D02*
X017370Y011400D01*
X017370Y011554D02*
X017831Y011554D01*
X017831Y011247D02*
X017524Y011247D01*
X017370Y011093D01*
X017524Y010940D01*
X017831Y010940D01*
X017831Y010786D02*
X017831Y010479D01*
X017370Y010479D01*
X017447Y010326D02*
X017370Y010249D01*
X017370Y010096D01*
X017447Y010019D01*
X017754Y010019D01*
X017831Y010096D01*
X017831Y010249D01*
X017754Y010326D01*
X017447Y010326D01*
X017447Y009866D02*
X017370Y009789D01*
X017370Y009635D01*
X017447Y009559D01*
X017524Y009559D01*
X017601Y009635D01*
X017601Y009789D01*
X017677Y009866D01*
X017754Y009866D01*
X017831Y009789D01*
X017831Y009635D01*
X017754Y009559D01*
X017831Y009405D02*
X017831Y009252D01*
X017831Y009329D02*
X017370Y009329D01*
X017370Y009405D02*
X017370Y009252D01*
X017447Y008638D02*
X017370Y008561D01*
X017370Y008408D01*
X017447Y008331D01*
X017754Y008331D01*
X017831Y008408D01*
X017831Y008561D01*
X017754Y008638D01*
X017447Y008638D01*
X017370Y008178D02*
X017370Y007871D01*
X017370Y008024D02*
X017831Y008024D01*
X017601Y007717D02*
X017447Y007717D01*
X017370Y007641D01*
X017370Y007410D01*
X017831Y007410D01*
X017677Y007410D02*
X017677Y007641D01*
X017601Y007717D01*
X017754Y007257D02*
X017447Y007257D01*
X017370Y007180D01*
X017370Y007027D01*
X017447Y006950D01*
X017754Y006950D01*
X017831Y007027D01*
X017831Y007180D01*
X017754Y007257D01*
X017754Y006336D02*
X017831Y006260D01*
X017831Y006106D01*
X017754Y006029D01*
X017754Y005876D02*
X017370Y005876D01*
X017447Y006029D02*
X017370Y006106D01*
X017370Y006260D01*
X017447Y006336D01*
X017601Y006260D02*
X017677Y006336D01*
X017754Y006336D01*
X017601Y006260D02*
X017601Y006106D01*
X017524Y006029D01*
X017447Y006029D01*
X017754Y005876D02*
X017831Y005799D01*
X017831Y005646D01*
X017754Y005569D01*
X017370Y005569D01*
X017447Y005416D02*
X017370Y005339D01*
X017370Y005109D01*
X017831Y005109D01*
X017831Y005339D01*
X017754Y005416D01*
X017677Y005416D01*
X017601Y005339D01*
X017601Y005109D01*
X017601Y005339D02*
X017524Y005416D01*
X017447Y005416D01*
X017447Y004495D02*
X017370Y004418D01*
X017370Y004265D01*
X017447Y004188D01*
X017754Y004188D01*
X017831Y004265D01*
X017831Y004418D01*
X017754Y004495D01*
X017831Y004035D02*
X017831Y003728D01*
X017524Y004035D01*
X017447Y004035D01*
X017370Y003958D01*
X017370Y003804D01*
X017447Y003728D01*
X017370Y003574D02*
X017370Y003421D01*
X017370Y003497D02*
X017831Y003497D01*
X017831Y003421D02*
X017831Y003574D01*
X014247Y000532D02*
X013940Y000532D01*
X013940Y000992D01*
X013786Y000839D02*
X013786Y000532D01*
X013786Y000762D02*
X013479Y000762D01*
X013479Y000839D02*
X013479Y000532D01*
X013326Y000532D02*
X013326Y000992D01*
X013479Y000839D02*
X013633Y000992D01*
X013786Y000839D01*
X013326Y000532D02*
X013019Y000992D01*
X013019Y000532D01*
X012866Y000532D02*
X012712Y000685D01*
X012789Y000685D02*
X012559Y000685D01*
X012559Y000532D02*
X012559Y000992D01*
X012789Y000992D01*
X012866Y000916D01*
X012866Y000762D01*
X012789Y000685D01*
X012405Y000532D02*
X012098Y000532D01*
X012098Y000992D01*
X012405Y000992D01*
X012252Y000762D02*
X012098Y000762D01*
X011945Y000992D02*
X011638Y000992D01*
X011485Y000992D02*
X011485Y000532D01*
X011178Y000992D01*
X011178Y000532D01*
X011024Y000532D02*
X010871Y000532D01*
X010947Y000532D02*
X010947Y000992D01*
X010871Y000992D02*
X011024Y000992D01*
X011014Y001632D02*
X010896Y001632D01*
X011014Y001750D01*
X010935Y001711D02*
X010896Y001750D01*
X010896Y002144D01*
X010935Y002183D01*
X010896Y002144D02*
X010778Y002144D01*
X010778Y002262D02*
X010896Y002262D01*
X011014Y002144D01*
X011014Y002262D02*
X010896Y002262D01*
X010896Y001750D02*
X010778Y001750D01*
X010778Y001632D02*
X010896Y001632D01*
X011791Y000992D02*
X011791Y000532D01*
X017601Y010940D02*
X017601Y011247D01*
X017370Y016544D02*
X017447Y016621D01*
X000984Y011477D02*
X000984Y011400D01*
X000984Y011477D02*
X000907Y011554D01*
X000524Y011554D01*
X000524Y011324D01*
X000601Y011247D01*
X000754Y011247D01*
X000831Y011324D01*
X000831Y011554D01*
X000831Y011707D02*
X000831Y011784D01*
X000754Y011784D01*
X000754Y011707D01*
X000831Y011707D01*
X000754Y011937D02*
X000831Y012014D01*
X000831Y012244D01*
X000524Y012244D01*
X000677Y012398D02*
X000524Y012628D01*
X000677Y012398D02*
X000831Y012628D01*
X000831Y012398D02*
X000370Y012398D01*
X000524Y011937D02*
X000754Y011937D01*
X000524Y011093D02*
X000524Y011017D01*
X000677Y010863D01*
X000524Y010863D02*
X000831Y010863D01*
X000754Y010710D02*
X000601Y010710D01*
X000524Y010633D01*
X000524Y010480D01*
X000601Y010403D01*
X000754Y010403D01*
X000831Y010480D01*
X000831Y010633D01*
X000754Y010710D01*
X000754Y010249D02*
X000831Y010249D01*
X000831Y010173D01*
X000754Y010173D01*
X000754Y010249D01*
X000677Y010019D02*
X000677Y009712D01*
X000601Y009712D02*
X000524Y009789D01*
X000524Y009943D01*
X000601Y010019D01*
X000677Y010019D01*
X000831Y009943D02*
X000831Y009789D01*
X000754Y009712D01*
X000601Y009712D01*
X000524Y009559D02*
X000524Y009482D01*
X000677Y009329D01*
X000524Y009329D02*
X000831Y009329D01*
X000831Y009175D02*
X000831Y009022D01*
X000831Y009099D02*
X000524Y009099D01*
X000524Y009022D01*
X000601Y008868D02*
X000524Y008792D01*
X000524Y008638D01*
X000601Y008562D01*
X000524Y008408D02*
X000524Y008178D01*
X000601Y008101D01*
X000677Y008178D01*
X000677Y008331D01*
X000754Y008408D01*
X000831Y008331D01*
X000831Y008101D01*
X000831Y007948D02*
X000831Y007794D01*
X000831Y007871D02*
X000370Y007871D01*
X000370Y007794D01*
X000370Y007564D02*
X000831Y007564D01*
X000831Y007487D02*
X000831Y007641D01*
X000831Y007334D02*
X000601Y007334D01*
X000524Y007257D01*
X000524Y007104D01*
X000677Y007104D02*
X000677Y007334D01*
X000831Y007334D02*
X000831Y007104D01*
X000754Y007027D01*
X000677Y007104D01*
X000601Y006874D02*
X000524Y006797D01*
X000601Y006720D01*
X000831Y006720D01*
X000831Y006567D02*
X000524Y006567D01*
X000524Y006643D01*
X000601Y006720D01*
X000601Y006874D02*
X000831Y006874D01*
X000754Y006413D02*
X000677Y006337D01*
X000677Y006183D01*
X000601Y006106D01*
X000524Y006183D01*
X000524Y006413D01*
X000754Y006413D02*
X000831Y006337D01*
X000831Y006106D01*
X000370Y007487D02*
X000370Y007564D01*
X000370Y008562D02*
X000831Y008562D01*
X000831Y008868D02*
X000601Y008868D01*
X000370Y009099D02*
X000294Y009099D01*
D12*
X002451Y008762D02*
X003201Y008762D01*
X003203Y008723D01*
X003209Y008684D01*
X003218Y008646D01*
X003231Y008609D01*
X003248Y008573D01*
X003268Y008540D01*
X003292Y008508D01*
X003318Y008479D01*
X003347Y008453D01*
X003379Y008429D01*
X003412Y008409D01*
X003448Y008392D01*
X003485Y008379D01*
X003523Y008370D01*
X003562Y008364D01*
X003601Y008362D01*
X003640Y008364D01*
X003679Y008370D01*
X003717Y008379D01*
X003754Y008392D01*
X003790Y008409D01*
X003823Y008429D01*
X003855Y008453D01*
X003884Y008479D01*
X003910Y008508D01*
X003934Y008540D01*
X003954Y008573D01*
X003971Y008609D01*
X003984Y008646D01*
X003993Y008684D01*
X003999Y008723D01*
X004001Y008762D01*
X004751Y008762D01*
X004751Y004762D01*
X002451Y004762D01*
X002451Y008762D01*
X002451Y009762D02*
X004751Y009762D01*
X004751Y013762D01*
X004001Y013762D01*
X003999Y013723D01*
X003993Y013684D01*
X003984Y013646D01*
X003971Y013609D01*
X003954Y013573D01*
X003934Y013540D01*
X003910Y013508D01*
X003884Y013479D01*
X003855Y013453D01*
X003823Y013429D01*
X003790Y013409D01*
X003754Y013392D01*
X003717Y013379D01*
X003679Y013370D01*
X003640Y013364D01*
X003601Y013362D01*
X003562Y013364D01*
X003523Y013370D01*
X003485Y013379D01*
X003448Y013392D01*
X003412Y013409D01*
X003379Y013429D01*
X003347Y013453D01*
X003318Y013479D01*
X003292Y013508D01*
X003268Y013540D01*
X003248Y013573D01*
X003231Y013609D01*
X003218Y013646D01*
X003209Y013684D01*
X003203Y013723D01*
X003201Y013762D01*
X002451Y013762D01*
X002451Y009762D01*
X002451Y014312D02*
X002601Y014312D01*
X002651Y014362D01*
X004551Y014362D01*
X004601Y014312D01*
X004751Y014312D01*
X004768Y014314D01*
X004785Y014318D01*
X004801Y014325D01*
X004815Y014335D01*
X004828Y014348D01*
X004838Y014362D01*
X004845Y014378D01*
X004849Y014395D01*
X004851Y014412D01*
X004851Y015112D01*
X004849Y015129D01*
X004845Y015146D01*
X004838Y015162D01*
X004828Y015176D01*
X004815Y015189D01*
X004801Y015199D01*
X004785Y015206D01*
X004768Y015210D01*
X004751Y015212D01*
X004601Y015212D01*
X004551Y015162D01*
X002651Y015162D01*
X002601Y015212D01*
X002451Y015212D01*
X002434Y015210D01*
X002417Y015206D01*
X002401Y015199D01*
X002387Y015189D01*
X002374Y015176D01*
X002364Y015162D01*
X002357Y015146D01*
X002353Y015129D01*
X002351Y015112D01*
X002351Y014412D01*
X002353Y014395D01*
X002357Y014378D01*
X002364Y014362D01*
X002374Y014348D01*
X002387Y014335D01*
X002401Y014325D01*
X002417Y014318D01*
X002434Y014314D01*
X002451Y014312D01*
X004851Y015912D02*
X004851Y016612D01*
X004853Y016629D01*
X004857Y016646D01*
X004864Y016662D01*
X004874Y016676D01*
X004887Y016689D01*
X004901Y016699D01*
X004917Y016706D01*
X004934Y016710D01*
X004951Y016712D01*
X005101Y016712D01*
X005151Y016662D01*
X007051Y016662D01*
X007101Y016712D01*
X007251Y016712D01*
X007268Y016710D01*
X007285Y016706D01*
X007301Y016699D01*
X007315Y016689D01*
X007328Y016676D01*
X007338Y016662D01*
X007345Y016646D01*
X007349Y016629D01*
X007351Y016612D01*
X007351Y015912D01*
X007349Y015895D01*
X007345Y015878D01*
X007338Y015862D01*
X007328Y015848D01*
X007315Y015835D01*
X007301Y015825D01*
X007285Y015818D01*
X007268Y015814D01*
X007251Y015812D01*
X007101Y015812D01*
X007051Y015862D01*
X005151Y015862D01*
X005101Y015812D01*
X004951Y015812D01*
X004934Y015814D01*
X004917Y015818D01*
X004901Y015825D01*
X004887Y015835D01*
X004874Y015848D01*
X004864Y015862D01*
X004857Y015878D01*
X004853Y015895D01*
X004851Y015912D01*
X004851Y017762D02*
X004351Y017762D01*
X004101Y018012D01*
X004101Y018512D01*
X004351Y018762D01*
X004851Y018762D01*
X005101Y018512D01*
X005351Y018762D01*
X005851Y018762D01*
X006101Y018512D01*
X006101Y018012D01*
X005851Y017762D01*
X005351Y017762D01*
X005101Y018012D01*
X004851Y017762D01*
X005101Y018012D02*
X005101Y018512D01*
X006101Y018512D02*
X006351Y018762D01*
X006851Y018762D01*
X007101Y018512D01*
X007351Y018762D01*
X007851Y018762D01*
X008101Y018512D01*
X008351Y018762D01*
X008851Y018762D01*
X009101Y018512D01*
X009351Y018762D01*
X009851Y018762D01*
X010101Y018512D01*
X010101Y018012D01*
X009851Y017762D01*
X009351Y017762D01*
X009101Y018012D01*
X008851Y017762D01*
X008351Y017762D01*
X008101Y018012D01*
X007851Y017762D01*
X007351Y017762D01*
X007101Y018012D01*
X006851Y017762D01*
X006351Y017762D01*
X006101Y018012D01*
X007101Y018012D02*
X007101Y018512D01*
X008101Y018512D02*
X008101Y018012D01*
X009101Y018012D02*
X009101Y018512D01*
X010951Y016712D02*
X011101Y016712D01*
X011151Y016662D01*
X013051Y016662D01*
X013101Y016712D01*
X013251Y016712D01*
X013268Y016710D01*
X013285Y016706D01*
X013301Y016699D01*
X013315Y016689D01*
X013328Y016676D01*
X013338Y016662D01*
X013345Y016646D01*
X013349Y016629D01*
X013351Y016612D01*
X013351Y015912D01*
X013349Y015895D01*
X013345Y015878D01*
X013338Y015862D01*
X013328Y015848D01*
X013315Y015835D01*
X013301Y015825D01*
X013285Y015818D01*
X013268Y015814D01*
X013251Y015812D01*
X013101Y015812D01*
X013051Y015862D01*
X011151Y015862D01*
X011101Y015812D01*
X010951Y015812D01*
X010934Y015814D01*
X010917Y015818D01*
X010901Y015825D01*
X010887Y015835D01*
X010874Y015848D01*
X010864Y015862D01*
X010857Y015878D01*
X010853Y015895D01*
X010851Y015912D01*
X010851Y016612D01*
X010853Y016629D01*
X010857Y016646D01*
X010864Y016662D01*
X010874Y016676D01*
X010887Y016689D01*
X010901Y016699D01*
X010917Y016706D01*
X010934Y016710D01*
X010951Y016712D01*
X010251Y015212D02*
X010101Y015212D01*
X010051Y015162D01*
X008151Y015162D01*
X008101Y015212D01*
X007951Y015212D01*
X007934Y015210D01*
X007917Y015206D01*
X007901Y015199D01*
X007887Y015189D01*
X007874Y015176D01*
X007864Y015162D01*
X007857Y015146D01*
X007853Y015129D01*
X007851Y015112D01*
X007851Y014412D01*
X007853Y014395D01*
X007857Y014378D01*
X007864Y014362D01*
X007874Y014348D01*
X007887Y014335D01*
X007901Y014325D01*
X007917Y014318D01*
X007934Y014314D01*
X007951Y014312D01*
X008101Y014312D01*
X008151Y014362D01*
X010051Y014362D01*
X010101Y014312D01*
X010251Y014312D01*
X010268Y014314D01*
X010285Y014318D01*
X010301Y014325D01*
X010315Y014335D01*
X010328Y014348D01*
X010338Y014362D01*
X010345Y014378D01*
X010349Y014395D01*
X010351Y014412D01*
X010351Y015112D01*
X010349Y015129D01*
X010345Y015146D01*
X010338Y015162D01*
X010328Y015176D01*
X010315Y015189D01*
X010301Y015199D01*
X010285Y015206D01*
X010268Y015210D01*
X010251Y015212D01*
X010251Y013712D02*
X010101Y013712D01*
X010051Y013662D01*
X008151Y013662D01*
X008101Y013712D01*
X007951Y013712D01*
X007934Y013710D01*
X007917Y013706D01*
X007901Y013699D01*
X007887Y013689D01*
X007874Y013676D01*
X007864Y013662D01*
X007857Y013646D01*
X007853Y013629D01*
X007851Y013612D01*
X007851Y012912D01*
X007853Y012895D01*
X007857Y012878D01*
X007864Y012862D01*
X007874Y012848D01*
X007887Y012835D01*
X007901Y012825D01*
X007917Y012818D01*
X007934Y012814D01*
X007951Y012812D01*
X008101Y012812D01*
X008151Y012862D01*
X010051Y012862D01*
X010101Y012812D01*
X010251Y012812D01*
X010268Y012814D01*
X010285Y012818D01*
X010301Y012825D01*
X010315Y012835D01*
X010328Y012848D01*
X010338Y012862D01*
X010345Y012878D01*
X010349Y012895D01*
X010351Y012912D01*
X010351Y013612D01*
X010349Y013629D01*
X010345Y013646D01*
X010338Y013662D01*
X010328Y013676D01*
X010315Y013689D01*
X010301Y013699D01*
X010285Y013706D01*
X010268Y013710D01*
X010251Y013712D01*
X010251Y012262D02*
X009501Y012262D01*
X009499Y012223D01*
X009493Y012184D01*
X009484Y012146D01*
X009471Y012109D01*
X009454Y012073D01*
X009434Y012040D01*
X009410Y012008D01*
X009384Y011979D01*
X009355Y011953D01*
X009323Y011929D01*
X009290Y011909D01*
X009254Y011892D01*
X009217Y011879D01*
X009179Y011870D01*
X009140Y011864D01*
X009101Y011862D01*
X009062Y011864D01*
X009023Y011870D01*
X008985Y011879D01*
X008948Y011892D01*
X008912Y011909D01*
X008879Y011929D01*
X008847Y011953D01*
X008818Y011979D01*
X008792Y012008D01*
X008768Y012040D01*
X008748Y012073D01*
X008731Y012109D01*
X008718Y012146D01*
X008709Y012184D01*
X008703Y012223D01*
X008701Y012262D01*
X007951Y012262D01*
X007951Y008262D01*
X010251Y008262D01*
X010251Y012262D01*
X013451Y013762D02*
X013451Y009762D01*
X015751Y009762D01*
X015751Y013762D01*
X015001Y013762D01*
X014999Y013723D01*
X014993Y013684D01*
X014984Y013646D01*
X014971Y013609D01*
X014954Y013573D01*
X014934Y013540D01*
X014910Y013508D01*
X014884Y013479D01*
X014855Y013453D01*
X014823Y013429D01*
X014790Y013409D01*
X014754Y013392D01*
X014717Y013379D01*
X014679Y013370D01*
X014640Y013364D01*
X014601Y013362D01*
X014562Y013364D01*
X014523Y013370D01*
X014485Y013379D01*
X014448Y013392D01*
X014412Y013409D01*
X014379Y013429D01*
X014347Y013453D01*
X014318Y013479D01*
X014292Y013508D01*
X014268Y013540D01*
X014248Y013573D01*
X014231Y013609D01*
X014218Y013646D01*
X014209Y013684D01*
X014203Y013723D01*
X014201Y013762D01*
X013451Y013762D01*
X013451Y014312D02*
X013601Y014312D01*
X013651Y014362D01*
X015551Y014362D01*
X015601Y014312D01*
X015751Y014312D01*
X015768Y014314D01*
X015785Y014318D01*
X015801Y014325D01*
X015815Y014335D01*
X015828Y014348D01*
X015838Y014362D01*
X015845Y014378D01*
X015849Y014395D01*
X015851Y014412D01*
X015851Y015112D01*
X015849Y015129D01*
X015845Y015146D01*
X015838Y015162D01*
X015828Y015176D01*
X015815Y015189D01*
X015801Y015199D01*
X015785Y015206D01*
X015768Y015210D01*
X015751Y015212D01*
X015601Y015212D01*
X015551Y015162D01*
X013651Y015162D01*
X013601Y015212D01*
X013451Y015212D01*
X013434Y015210D01*
X013417Y015206D01*
X013401Y015199D01*
X013387Y015189D01*
X013374Y015176D01*
X013364Y015162D01*
X013357Y015146D01*
X013353Y015129D01*
X013351Y015112D01*
X013351Y014412D01*
X013353Y014395D01*
X013357Y014378D01*
X013364Y014362D01*
X013374Y014348D01*
X013387Y014335D01*
X013401Y014325D01*
X013417Y014318D01*
X013434Y014314D01*
X013451Y014312D01*
X015251Y018262D02*
X015253Y018335D01*
X015259Y018408D01*
X015269Y018480D01*
X015283Y018552D01*
X015300Y018623D01*
X015322Y018693D01*
X015347Y018762D01*
X015376Y018829D01*
X015408Y018894D01*
X015444Y018958D01*
X015484Y019020D01*
X015526Y019079D01*
X015572Y019136D01*
X015621Y019190D01*
X015673Y019242D01*
X015727Y019291D01*
X015784Y019337D01*
X015843Y019379D01*
X015905Y019419D01*
X015969Y019455D01*
X016034Y019487D01*
X016101Y019516D01*
X016170Y019541D01*
X016240Y019563D01*
X016311Y019580D01*
X016383Y019594D01*
X016455Y019604D01*
X016528Y019610D01*
X016601Y019612D01*
X016674Y019610D01*
X016747Y019604D01*
X016819Y019594D01*
X016891Y019580D01*
X016962Y019563D01*
X017032Y019541D01*
X017101Y019516D01*
X017168Y019487D01*
X017233Y019455D01*
X017297Y019419D01*
X017359Y019379D01*
X017418Y019337D01*
X017475Y019291D01*
X017529Y019242D01*
X017581Y019190D01*
X017630Y019136D01*
X017676Y019079D01*
X017718Y019020D01*
X017758Y018958D01*
X017794Y018894D01*
X017826Y018829D01*
X017855Y018762D01*
X017880Y018693D01*
X017902Y018623D01*
X017919Y018552D01*
X017933Y018480D01*
X017943Y018408D01*
X017949Y018335D01*
X017951Y018262D01*
X017949Y018189D01*
X017943Y018116D01*
X017933Y018044D01*
X017919Y017972D01*
X017902Y017901D01*
X017880Y017831D01*
X017855Y017762D01*
X017826Y017695D01*
X017794Y017630D01*
X017758Y017566D01*
X017718Y017504D01*
X017676Y017445D01*
X017630Y017388D01*
X017581Y017334D01*
X017529Y017282D01*
X017475Y017233D01*
X017418Y017187D01*
X017359Y017145D01*
X017297Y017105D01*
X017233Y017069D01*
X017168Y017037D01*
X017101Y017008D01*
X017032Y016983D01*
X016962Y016961D01*
X016891Y016944D01*
X016819Y016930D01*
X016747Y016920D01*
X016674Y016914D01*
X016601Y016912D01*
X016528Y016914D01*
X016455Y016920D01*
X016383Y016930D01*
X016311Y016944D01*
X016240Y016961D01*
X016170Y016983D01*
X016101Y017008D01*
X016034Y017037D01*
X015969Y017069D01*
X015905Y017105D01*
X015843Y017145D01*
X015784Y017187D01*
X015727Y017233D01*
X015673Y017282D01*
X015621Y017334D01*
X015572Y017388D01*
X015526Y017445D01*
X015484Y017504D01*
X015444Y017566D01*
X015408Y017630D01*
X015376Y017695D01*
X015347Y017762D01*
X015322Y017831D01*
X015300Y017901D01*
X015283Y017972D01*
X015269Y018044D01*
X015259Y018116D01*
X015253Y018189D01*
X015251Y018262D01*
X015001Y008762D02*
X015751Y008762D01*
X015751Y004762D01*
X013451Y004762D01*
X013451Y008762D01*
X014201Y008762D01*
X014203Y008723D01*
X014209Y008684D01*
X014218Y008646D01*
X014231Y008609D01*
X014248Y008573D01*
X014268Y008540D01*
X014292Y008508D01*
X014318Y008479D01*
X014347Y008453D01*
X014379Y008429D01*
X014412Y008409D01*
X014448Y008392D01*
X014485Y008379D01*
X014523Y008370D01*
X014562Y008364D01*
X014601Y008362D01*
X014640Y008364D01*
X014679Y008370D01*
X014717Y008379D01*
X014754Y008392D01*
X014790Y008409D01*
X014823Y008429D01*
X014855Y008453D01*
X014884Y008479D01*
X014910Y008508D01*
X014934Y008540D01*
X014954Y008573D01*
X014971Y008609D01*
X014984Y008646D01*
X014993Y008684D01*
X014999Y008723D01*
X015001Y008762D01*
X012751Y004712D02*
X012601Y004712D01*
X012551Y004662D01*
X010651Y004662D01*
X010601Y004712D01*
X010451Y004712D01*
X010434Y004710D01*
X010417Y004706D01*
X010401Y004699D01*
X010387Y004689D01*
X010374Y004676D01*
X010364Y004662D01*
X010357Y004646D01*
X010353Y004629D01*
X010351Y004612D01*
X010351Y003912D01*
X010353Y003895D01*
X010357Y003878D01*
X010364Y003862D01*
X010374Y003848D01*
X010387Y003835D01*
X010401Y003825D01*
X010417Y003818D01*
X010434Y003814D01*
X010451Y003812D01*
X010601Y003812D01*
X010651Y003862D01*
X012551Y003862D01*
X012601Y003812D01*
X012751Y003812D01*
X012768Y003814D01*
X012785Y003818D01*
X012801Y003825D01*
X012815Y003835D01*
X012828Y003848D01*
X012838Y003862D01*
X012845Y003878D01*
X012849Y003895D01*
X012851Y003912D01*
X012851Y004612D01*
X012849Y004629D01*
X012845Y004646D01*
X012838Y004662D01*
X012828Y004676D01*
X012815Y004689D01*
X012801Y004699D01*
X012785Y004706D01*
X012768Y004710D01*
X012751Y004712D01*
X010351Y005412D02*
X010351Y006112D01*
X010349Y006129D01*
X010345Y006146D01*
X010338Y006162D01*
X010328Y006176D01*
X010315Y006189D01*
X010301Y006199D01*
X010285Y006206D01*
X010268Y006210D01*
X010251Y006212D01*
X010101Y006212D01*
X010051Y006162D01*
X008151Y006162D01*
X008101Y006212D01*
X007951Y006212D01*
X007934Y006210D01*
X007917Y006206D01*
X007901Y006199D01*
X007887Y006189D01*
X007874Y006176D01*
X007864Y006162D01*
X007857Y006146D01*
X007853Y006129D01*
X007851Y006112D01*
X007851Y005412D01*
X007853Y005395D01*
X007857Y005378D01*
X007864Y005362D01*
X007874Y005348D01*
X007887Y005335D01*
X007901Y005325D01*
X007917Y005318D01*
X007934Y005314D01*
X007951Y005312D01*
X008101Y005312D01*
X008151Y005362D01*
X010051Y005362D01*
X010101Y005312D01*
X010251Y005312D01*
X010268Y005314D01*
X010285Y005318D01*
X010301Y005325D01*
X010315Y005335D01*
X010328Y005348D01*
X010338Y005362D01*
X010345Y005378D01*
X010349Y005395D01*
X010351Y005412D01*
X010251Y006812D02*
X010101Y006812D01*
X010051Y006862D01*
X008151Y006862D01*
X008101Y006812D01*
X007951Y006812D01*
X007934Y006814D01*
X007917Y006818D01*
X007901Y006825D01*
X007887Y006835D01*
X007874Y006848D01*
X007864Y006862D01*
X007857Y006878D01*
X007853Y006895D01*
X007851Y006912D01*
X007851Y007612D01*
X007853Y007629D01*
X007857Y007646D01*
X007864Y007662D01*
X007874Y007676D01*
X007887Y007689D01*
X007901Y007699D01*
X007917Y007706D01*
X007934Y007710D01*
X007951Y007712D01*
X008101Y007712D01*
X008151Y007662D01*
X010051Y007662D01*
X010101Y007712D01*
X010251Y007712D01*
X010268Y007710D01*
X010285Y007706D01*
X010301Y007699D01*
X010315Y007689D01*
X010328Y007676D01*
X010338Y007662D01*
X010345Y007646D01*
X010349Y007629D01*
X010351Y007612D01*
X010351Y006912D01*
X010349Y006895D01*
X010345Y006878D01*
X010338Y006862D01*
X010328Y006848D01*
X010315Y006835D01*
X010301Y006825D01*
X010285Y006818D01*
X010268Y006814D01*
X010251Y006812D01*
X007851Y004612D02*
X007851Y003912D01*
X007849Y003895D01*
X007845Y003878D01*
X007838Y003862D01*
X007828Y003848D01*
X007815Y003835D01*
X007801Y003825D01*
X007785Y003818D01*
X007768Y003814D01*
X007751Y003812D01*
X007601Y003812D01*
X007551Y003862D01*
X005651Y003862D01*
X005601Y003812D01*
X005451Y003812D01*
X005434Y003814D01*
X005417Y003818D01*
X005401Y003825D01*
X005387Y003835D01*
X005374Y003848D01*
X005364Y003862D01*
X005357Y003878D01*
X005353Y003895D01*
X005351Y003912D01*
X005351Y004612D01*
X005353Y004629D01*
X005357Y004646D01*
X005364Y004662D01*
X005374Y004676D01*
X005387Y004689D01*
X005401Y004699D01*
X005417Y004706D01*
X005434Y004710D01*
X005451Y004712D01*
X005601Y004712D01*
X005651Y004662D01*
X007551Y004662D01*
X007601Y004712D01*
X007751Y004712D01*
X007768Y004710D01*
X007785Y004706D01*
X007801Y004699D01*
X007815Y004689D01*
X007828Y004676D01*
X007838Y004662D01*
X007845Y004646D01*
X007849Y004629D01*
X007851Y004612D01*
X007851Y002762D02*
X007351Y002762D01*
X007101Y002512D01*
X007101Y002012D01*
X007351Y001762D01*
X007851Y001762D01*
X008101Y002012D01*
X008351Y001762D01*
X008851Y001762D01*
X009101Y002012D01*
X009351Y001762D01*
X009851Y001762D01*
X010101Y002012D01*
X010101Y002512D01*
X009851Y002762D01*
X009351Y002762D01*
X009101Y002512D01*
X009101Y002012D01*
X009101Y002512D02*
X008851Y002762D01*
X008351Y002762D01*
X008101Y002512D01*
X008101Y002012D01*
X008101Y002512D02*
X007851Y002762D01*
X007101Y002512D02*
X006851Y002762D01*
X006351Y002762D01*
X006101Y002512D01*
X006101Y002012D01*
X005851Y001762D01*
X005351Y001762D01*
X005101Y002012D01*
X004851Y001762D01*
X004351Y001762D01*
X004101Y002012D01*
X004101Y002512D01*
X004351Y002762D01*
X004851Y002762D01*
X005101Y002512D01*
X005351Y002762D01*
X005851Y002762D01*
X006101Y002512D01*
X006101Y002012D02*
X006351Y001762D01*
X006851Y001762D01*
X007101Y002012D01*
X005101Y002012D02*
X005101Y002512D01*
X000751Y002262D02*
X000753Y002335D01*
X000759Y002408D01*
X000769Y002480D01*
X000783Y002552D01*
X000800Y002623D01*
X000822Y002693D01*
X000847Y002762D01*
X000876Y002829D01*
X000908Y002894D01*
X000944Y002958D01*
X000984Y003020D01*
X001026Y003079D01*
X001072Y003136D01*
X001121Y003190D01*
X001173Y003242D01*
X001227Y003291D01*
X001284Y003337D01*
X001343Y003379D01*
X001405Y003419D01*
X001469Y003455D01*
X001534Y003487D01*
X001601Y003516D01*
X001670Y003541D01*
X001740Y003563D01*
X001811Y003580D01*
X001883Y003594D01*
X001955Y003604D01*
X002028Y003610D01*
X002101Y003612D01*
X002174Y003610D01*
X002247Y003604D01*
X002319Y003594D01*
X002391Y003580D01*
X002462Y003563D01*
X002532Y003541D01*
X002601Y003516D01*
X002668Y003487D01*
X002733Y003455D01*
X002797Y003419D01*
X002859Y003379D01*
X002918Y003337D01*
X002975Y003291D01*
X003029Y003242D01*
X003081Y003190D01*
X003130Y003136D01*
X003176Y003079D01*
X003218Y003020D01*
X003258Y002958D01*
X003294Y002894D01*
X003326Y002829D01*
X003355Y002762D01*
X003380Y002693D01*
X003402Y002623D01*
X003419Y002552D01*
X003433Y002480D01*
X003443Y002408D01*
X003449Y002335D01*
X003451Y002262D01*
X003449Y002189D01*
X003443Y002116D01*
X003433Y002044D01*
X003419Y001972D01*
X003402Y001901D01*
X003380Y001831D01*
X003355Y001762D01*
X003326Y001695D01*
X003294Y001630D01*
X003258Y001566D01*
X003218Y001504D01*
X003176Y001445D01*
X003130Y001388D01*
X003081Y001334D01*
X003029Y001282D01*
X002975Y001233D01*
X002918Y001187D01*
X002859Y001145D01*
X002797Y001105D01*
X002733Y001069D01*
X002668Y001037D01*
X002601Y001008D01*
X002532Y000983D01*
X002462Y000961D01*
X002391Y000944D01*
X002319Y000930D01*
X002247Y000920D01*
X002174Y000914D01*
X002101Y000912D01*
X002028Y000914D01*
X001955Y000920D01*
X001883Y000930D01*
X001811Y000944D01*
X001740Y000961D01*
X001670Y000983D01*
X001601Y001008D01*
X001534Y001037D01*
X001469Y001069D01*
X001405Y001105D01*
X001343Y001145D01*
X001284Y001187D01*
X001227Y001233D01*
X001173Y001282D01*
X001121Y001334D01*
X001072Y001388D01*
X001026Y001445D01*
X000984Y001504D01*
X000944Y001566D01*
X000908Y001630D01*
X000876Y001695D01*
X000847Y001762D01*
X000822Y001831D01*
X000800Y001901D01*
X000783Y001972D01*
X000769Y002044D01*
X000759Y002116D01*
X000753Y002189D01*
X000751Y002262D01*
X000751Y018262D02*
X000753Y018335D01*
X000759Y018408D01*
X000769Y018480D01*
X000783Y018552D01*
X000800Y018623D01*
X000822Y018693D01*
X000847Y018762D01*
X000876Y018829D01*
X000908Y018894D01*
X000944Y018958D01*
X000984Y019020D01*
X001026Y019079D01*
X001072Y019136D01*
X001121Y019190D01*
X001173Y019242D01*
X001227Y019291D01*
X001284Y019337D01*
X001343Y019379D01*
X001405Y019419D01*
X001469Y019455D01*
X001534Y019487D01*
X001601Y019516D01*
X001670Y019541D01*
X001740Y019563D01*
X001811Y019580D01*
X001883Y019594D01*
X001955Y019604D01*
X002028Y019610D01*
X002101Y019612D01*
X002174Y019610D01*
X002247Y019604D01*
X002319Y019594D01*
X002391Y019580D01*
X002462Y019563D01*
X002532Y019541D01*
X002601Y019516D01*
X002668Y019487D01*
X002733Y019455D01*
X002797Y019419D01*
X002859Y019379D01*
X002918Y019337D01*
X002975Y019291D01*
X003029Y019242D01*
X003081Y019190D01*
X003130Y019136D01*
X003176Y019079D01*
X003218Y019020D01*
X003258Y018958D01*
X003294Y018894D01*
X003326Y018829D01*
X003355Y018762D01*
X003380Y018693D01*
X003402Y018623D01*
X003419Y018552D01*
X003433Y018480D01*
X003443Y018408D01*
X003449Y018335D01*
X003451Y018262D01*
X003449Y018189D01*
X003443Y018116D01*
X003433Y018044D01*
X003419Y017972D01*
X003402Y017901D01*
X003380Y017831D01*
X003355Y017762D01*
X003326Y017695D01*
X003294Y017630D01*
X003258Y017566D01*
X003218Y017504D01*
X003176Y017445D01*
X003130Y017388D01*
X003081Y017334D01*
X003029Y017282D01*
X002975Y017233D01*
X002918Y017187D01*
X002859Y017145D01*
X002797Y017105D01*
X002733Y017069D01*
X002668Y017037D01*
X002601Y017008D01*
X002532Y016983D01*
X002462Y016961D01*
X002391Y016944D01*
X002319Y016930D01*
X002247Y016920D01*
X002174Y016914D01*
X002101Y016912D01*
X002028Y016914D01*
X001955Y016920D01*
X001883Y016930D01*
X001811Y016944D01*
X001740Y016961D01*
X001670Y016983D01*
X001601Y017008D01*
X001534Y017037D01*
X001469Y017069D01*
X001405Y017105D01*
X001343Y017145D01*
X001284Y017187D01*
X001227Y017233D01*
X001173Y017282D01*
X001121Y017334D01*
X001072Y017388D01*
X001026Y017445D01*
X000984Y017504D01*
X000944Y017566D01*
X000908Y017630D01*
X000876Y017695D01*
X000847Y017762D01*
X000822Y017831D01*
X000800Y017901D01*
X000783Y017972D01*
X000769Y018044D01*
X000759Y018116D01*
X000753Y018189D01*
X000751Y018262D01*
X015251Y002262D02*
X015253Y002335D01*
X015259Y002408D01*
X015269Y002480D01*
X015283Y002552D01*
X015300Y002623D01*
X015322Y002693D01*
X015347Y002762D01*
X015376Y002829D01*
X015408Y002894D01*
X015444Y002958D01*
X015484Y003020D01*
X015526Y003079D01*
X015572Y003136D01*
X015621Y003190D01*
X015673Y003242D01*
X015727Y003291D01*
X015784Y003337D01*
X015843Y003379D01*
X015905Y003419D01*
X015969Y003455D01*
X016034Y003487D01*
X016101Y003516D01*
X016170Y003541D01*
X016240Y003563D01*
X016311Y003580D01*
X016383Y003594D01*
X016455Y003604D01*
X016528Y003610D01*
X016601Y003612D01*
X016674Y003610D01*
X016747Y003604D01*
X016819Y003594D01*
X016891Y003580D01*
X016962Y003563D01*
X017032Y003541D01*
X017101Y003516D01*
X017168Y003487D01*
X017233Y003455D01*
X017297Y003419D01*
X017359Y003379D01*
X017418Y003337D01*
X017475Y003291D01*
X017529Y003242D01*
X017581Y003190D01*
X017630Y003136D01*
X017676Y003079D01*
X017718Y003020D01*
X017758Y002958D01*
X017794Y002894D01*
X017826Y002829D01*
X017855Y002762D01*
X017880Y002693D01*
X017902Y002623D01*
X017919Y002552D01*
X017933Y002480D01*
X017943Y002408D01*
X017949Y002335D01*
X017951Y002262D01*
X017949Y002189D01*
X017943Y002116D01*
X017933Y002044D01*
X017919Y001972D01*
X017902Y001901D01*
X017880Y001831D01*
X017855Y001762D01*
X017826Y001695D01*
X017794Y001630D01*
X017758Y001566D01*
X017718Y001504D01*
X017676Y001445D01*
X017630Y001388D01*
X017581Y001334D01*
X017529Y001282D01*
X017475Y001233D01*
X017418Y001187D01*
X017359Y001145D01*
X017297Y001105D01*
X017233Y001069D01*
X017168Y001037D01*
X017101Y001008D01*
X017032Y000983D01*
X016962Y000961D01*
X016891Y000944D01*
X016819Y000930D01*
X016747Y000920D01*
X016674Y000914D01*
X016601Y000912D01*
X016528Y000914D01*
X016455Y000920D01*
X016383Y000930D01*
X016311Y000944D01*
X016240Y000961D01*
X016170Y000983D01*
X016101Y001008D01*
X016034Y001037D01*
X015969Y001069D01*
X015905Y001105D01*
X015843Y001145D01*
X015784Y001187D01*
X015727Y001233D01*
X015673Y001282D01*
X015621Y001334D01*
X015572Y001388D01*
X015526Y001445D01*
X015484Y001504D01*
X015444Y001566D01*
X015408Y001630D01*
X015376Y001695D01*
X015347Y001762D01*
X015322Y001831D01*
X015300Y001901D01*
X015283Y001972D01*
X015269Y002044D01*
X015259Y002116D01*
X015253Y002189D01*
X015251Y002262D01*
D13*
X013021Y004262D03*
X010521Y005762D03*
X010521Y007262D03*
X007681Y007262D03*
X007681Y005762D03*
X008021Y004262D03*
X010181Y004262D03*
X005181Y004262D03*
X007681Y013262D03*
X007681Y014762D03*
X007521Y016262D03*
X005021Y014762D03*
X004681Y016262D03*
X002181Y014762D03*
X010521Y014762D03*
X010521Y013262D03*
X010681Y016262D03*
X013181Y014762D03*
X013521Y016262D03*
X016021Y014762D03*
D14*
X001471Y002262D02*
X001473Y002312D01*
X001479Y002362D01*
X001489Y002411D01*
X001503Y002459D01*
X001520Y002506D01*
X001541Y002551D01*
X001566Y002595D01*
X001594Y002636D01*
X001626Y002675D01*
X001660Y002712D01*
X001697Y002746D01*
X001737Y002776D01*
X001779Y002803D01*
X001823Y002827D01*
X001869Y002848D01*
X001916Y002864D01*
X001964Y002877D01*
X002014Y002886D01*
X002063Y002891D01*
X002114Y002892D01*
X002164Y002889D01*
X002213Y002882D01*
X002262Y002871D01*
X002310Y002856D01*
X002356Y002838D01*
X002401Y002816D01*
X002444Y002790D01*
X002485Y002761D01*
X002524Y002729D01*
X002560Y002694D01*
X002592Y002656D01*
X002622Y002616D01*
X002649Y002573D01*
X002672Y002529D01*
X002691Y002483D01*
X002707Y002435D01*
X002719Y002386D01*
X002727Y002337D01*
X002731Y002287D01*
X002731Y002237D01*
X002727Y002187D01*
X002719Y002138D01*
X002707Y002089D01*
X002691Y002041D01*
X002672Y001995D01*
X002649Y001951D01*
X002622Y001908D01*
X002592Y001868D01*
X002560Y001830D01*
X002524Y001795D01*
X002485Y001763D01*
X002444Y001734D01*
X002401Y001708D01*
X002356Y001686D01*
X002310Y001668D01*
X002262Y001653D01*
X002213Y001642D01*
X002164Y001635D01*
X002114Y001632D01*
X002063Y001633D01*
X002014Y001638D01*
X001964Y001647D01*
X001916Y001660D01*
X001869Y001676D01*
X001823Y001697D01*
X001779Y001721D01*
X001737Y001748D01*
X001697Y001778D01*
X001660Y001812D01*
X001626Y001849D01*
X001594Y001888D01*
X001566Y001929D01*
X001541Y001973D01*
X001520Y002018D01*
X001503Y002065D01*
X001489Y002113D01*
X001479Y002162D01*
X001473Y002212D01*
X001471Y002262D01*
X010542Y001986D02*
X010699Y001986D01*
X010542Y001986D02*
X010542Y002538D01*
X010699Y002538D01*
X010699Y002734D02*
X010542Y002734D01*
X010542Y002892D01*
X010699Y002892D01*
X010739Y003207D02*
X014463Y003207D01*
X014463Y001317D01*
X010739Y001317D01*
X010739Y003207D01*
X011054Y003049D02*
X014148Y003049D01*
X014148Y001475D01*
X011054Y001475D01*
X011054Y003049D01*
X010699Y001790D02*
X010542Y001790D01*
X010542Y001632D01*
X010699Y001632D01*
X014502Y001632D02*
X014660Y001632D01*
X014660Y001790D01*
X014502Y001790D01*
X014502Y001986D02*
X014660Y001986D01*
X014660Y002538D01*
X014502Y002538D01*
X014502Y002734D02*
X014660Y002734D01*
X014660Y002892D01*
X014502Y002892D01*
X015971Y002262D02*
X015973Y002312D01*
X015979Y002362D01*
X015989Y002411D01*
X016003Y002459D01*
X016020Y002506D01*
X016041Y002551D01*
X016066Y002595D01*
X016094Y002636D01*
X016126Y002675D01*
X016160Y002712D01*
X016197Y002746D01*
X016237Y002776D01*
X016279Y002803D01*
X016323Y002827D01*
X016369Y002848D01*
X016416Y002864D01*
X016464Y002877D01*
X016514Y002886D01*
X016563Y002891D01*
X016614Y002892D01*
X016664Y002889D01*
X016713Y002882D01*
X016762Y002871D01*
X016810Y002856D01*
X016856Y002838D01*
X016901Y002816D01*
X016944Y002790D01*
X016985Y002761D01*
X017024Y002729D01*
X017060Y002694D01*
X017092Y002656D01*
X017122Y002616D01*
X017149Y002573D01*
X017172Y002529D01*
X017191Y002483D01*
X017207Y002435D01*
X017219Y002386D01*
X017227Y002337D01*
X017231Y002287D01*
X017231Y002237D01*
X017227Y002187D01*
X017219Y002138D01*
X017207Y002089D01*
X017191Y002041D01*
X017172Y001995D01*
X017149Y001951D01*
X017122Y001908D01*
X017092Y001868D01*
X017060Y001830D01*
X017024Y001795D01*
X016985Y001763D01*
X016944Y001734D01*
X016901Y001708D01*
X016856Y001686D01*
X016810Y001668D01*
X016762Y001653D01*
X016713Y001642D01*
X016664Y001635D01*
X016614Y001632D01*
X016563Y001633D01*
X016514Y001638D01*
X016464Y001647D01*
X016416Y001660D01*
X016369Y001676D01*
X016323Y001697D01*
X016279Y001721D01*
X016237Y001748D01*
X016197Y001778D01*
X016160Y001812D01*
X016126Y001849D01*
X016094Y001888D01*
X016066Y001929D01*
X016041Y001973D01*
X016020Y002018D01*
X016003Y002065D01*
X015989Y002113D01*
X015979Y002162D01*
X015973Y002212D01*
X015971Y002262D01*
X014463Y017317D02*
X010739Y017317D01*
X010739Y019207D01*
X014463Y019207D01*
X014463Y017317D01*
X014502Y017632D02*
X014660Y017632D01*
X014660Y017790D01*
X014502Y017790D01*
X014502Y017986D02*
X014660Y017986D01*
X014660Y018538D01*
X014502Y018538D01*
X014502Y018734D02*
X014660Y018734D01*
X014660Y018892D01*
X014502Y018892D01*
X014148Y019049D02*
X011054Y019049D01*
X011054Y017475D01*
X014148Y017475D01*
X014148Y019049D01*
X015971Y018262D02*
X015973Y018312D01*
X015979Y018362D01*
X015989Y018411D01*
X016003Y018459D01*
X016020Y018506D01*
X016041Y018551D01*
X016066Y018595D01*
X016094Y018636D01*
X016126Y018675D01*
X016160Y018712D01*
X016197Y018746D01*
X016237Y018776D01*
X016279Y018803D01*
X016323Y018827D01*
X016369Y018848D01*
X016416Y018864D01*
X016464Y018877D01*
X016514Y018886D01*
X016563Y018891D01*
X016614Y018892D01*
X016664Y018889D01*
X016713Y018882D01*
X016762Y018871D01*
X016810Y018856D01*
X016856Y018838D01*
X016901Y018816D01*
X016944Y018790D01*
X016985Y018761D01*
X017024Y018729D01*
X017060Y018694D01*
X017092Y018656D01*
X017122Y018616D01*
X017149Y018573D01*
X017172Y018529D01*
X017191Y018483D01*
X017207Y018435D01*
X017219Y018386D01*
X017227Y018337D01*
X017231Y018287D01*
X017231Y018237D01*
X017227Y018187D01*
X017219Y018138D01*
X017207Y018089D01*
X017191Y018041D01*
X017172Y017995D01*
X017149Y017951D01*
X017122Y017908D01*
X017092Y017868D01*
X017060Y017830D01*
X017024Y017795D01*
X016985Y017763D01*
X016944Y017734D01*
X016901Y017708D01*
X016856Y017686D01*
X016810Y017668D01*
X016762Y017653D01*
X016713Y017642D01*
X016664Y017635D01*
X016614Y017632D01*
X016563Y017633D01*
X016514Y017638D01*
X016464Y017647D01*
X016416Y017660D01*
X016369Y017676D01*
X016323Y017697D01*
X016279Y017721D01*
X016237Y017748D01*
X016197Y017778D01*
X016160Y017812D01*
X016126Y017849D01*
X016094Y017888D01*
X016066Y017929D01*
X016041Y017973D01*
X016020Y018018D01*
X016003Y018065D01*
X015989Y018113D01*
X015979Y018162D01*
X015973Y018212D01*
X015971Y018262D01*
X010699Y017986D02*
X010542Y017986D01*
X010542Y018538D01*
X010699Y018538D01*
X010699Y018734D02*
X010542Y018734D01*
X010542Y018892D01*
X010699Y018892D01*
X010699Y017790D02*
X010542Y017790D01*
X010542Y017632D01*
X010699Y017632D01*
X001471Y018262D02*
X001473Y018312D01*
X001479Y018362D01*
X001489Y018411D01*
X001503Y018459D01*
X001520Y018506D01*
X001541Y018551D01*
X001566Y018595D01*
X001594Y018636D01*
X001626Y018675D01*
X001660Y018712D01*
X001697Y018746D01*
X001737Y018776D01*
X001779Y018803D01*
X001823Y018827D01*
X001869Y018848D01*
X001916Y018864D01*
X001964Y018877D01*
X002014Y018886D01*
X002063Y018891D01*
X002114Y018892D01*
X002164Y018889D01*
X002213Y018882D01*
X002262Y018871D01*
X002310Y018856D01*
X002356Y018838D01*
X002401Y018816D01*
X002444Y018790D01*
X002485Y018761D01*
X002524Y018729D01*
X002560Y018694D01*
X002592Y018656D01*
X002622Y018616D01*
X002649Y018573D01*
X002672Y018529D01*
X002691Y018483D01*
X002707Y018435D01*
X002719Y018386D01*
X002727Y018337D01*
X002731Y018287D01*
X002731Y018237D01*
X002727Y018187D01*
X002719Y018138D01*
X002707Y018089D01*
X002691Y018041D01*
X002672Y017995D01*
X002649Y017951D01*
X002622Y017908D01*
X002592Y017868D01*
X002560Y017830D01*
X002524Y017795D01*
X002485Y017763D01*
X002444Y017734D01*
X002401Y017708D01*
X002356Y017686D01*
X002310Y017668D01*
X002262Y017653D01*
X002213Y017642D01*
X002164Y017635D01*
X002114Y017632D01*
X002063Y017633D01*
X002014Y017638D01*
X001964Y017647D01*
X001916Y017660D01*
X001869Y017676D01*
X001823Y017697D01*
X001779Y017721D01*
X001737Y017748D01*
X001697Y017778D01*
X001660Y017812D01*
X001626Y017849D01*
X001594Y017888D01*
X001566Y017929D01*
X001541Y017973D01*
X001520Y018018D01*
X001503Y018065D01*
X001489Y018113D01*
X001479Y018162D01*
X001473Y018212D01*
X001471Y018262D01*
M02*
