G75*
G70*
%OFA0B0*%
%FSLAX24Y24*%
%IPPOS*%
%LPD*%
%AMOC8*
5,1,8,0,0,1.08239X$1,22.5*
%
%ADD10C,0.0080*%
%ADD11C,0.0520*%
%ADD12OC8,0.0520*%
%ADD13C,0.0520*%
%ADD14C,0.0600*%
%ADD15C,0.0160*%
%ADD16C,0.0079*%
D10*
X014629Y004052D02*
X014842Y004052D01*
X014629Y004266D01*
X014629Y004319D01*
X014682Y004372D01*
X014789Y004372D01*
X014842Y004319D01*
X015365Y004372D02*
X015579Y004372D01*
X015579Y004052D01*
X015365Y004052D01*
X015472Y004212D02*
X015579Y004212D01*
X015733Y004105D02*
X015787Y004052D01*
X015947Y004052D01*
X015947Y004372D01*
X015787Y004372D01*
X015733Y004319D01*
X015733Y004105D01*
X016086Y004052D02*
X016192Y004052D01*
X016139Y004052D02*
X016139Y004372D01*
X016192Y004372D02*
X016086Y004372D01*
X016347Y004319D02*
X016401Y004372D01*
X016507Y004372D01*
X016561Y004319D01*
X016561Y004266D01*
X016507Y004212D01*
X016401Y004212D01*
X016347Y004159D01*
X016347Y004105D01*
X016401Y004052D01*
X016507Y004052D01*
X016561Y004105D01*
D11*
X016621Y005262D02*
X016101Y005262D01*
X016101Y006262D02*
X016621Y006262D01*
X016621Y007262D02*
X016101Y007262D01*
X016101Y008262D02*
X016621Y008262D01*
X016621Y010262D02*
X016101Y010262D01*
X016101Y011262D02*
X016621Y011262D01*
X016621Y012262D02*
X016101Y012262D01*
X016101Y013262D02*
X016621Y013262D01*
X013101Y013262D02*
X012581Y013262D01*
X012581Y012262D02*
X013101Y012262D01*
X013101Y011262D02*
X012581Y011262D01*
X012581Y010262D02*
X013101Y010262D01*
X013101Y008262D02*
X012581Y008262D01*
X012581Y007262D02*
X013101Y007262D01*
X013101Y006262D02*
X012581Y006262D01*
X012581Y005262D02*
X013101Y005262D01*
X010861Y008762D02*
X010341Y008762D01*
X010341Y009762D02*
X010861Y009762D01*
X010861Y010762D02*
X010341Y010762D01*
X010341Y011762D02*
X010861Y011762D01*
X007861Y011762D02*
X007341Y011762D01*
X007341Y010762D02*
X007861Y010762D01*
X007861Y009762D02*
X007341Y009762D01*
X007341Y008762D02*
X007861Y008762D01*
X005621Y008262D02*
X005101Y008262D01*
X005101Y007262D02*
X005621Y007262D01*
X005621Y006262D02*
X005101Y006262D01*
X005101Y005262D02*
X005621Y005262D01*
X002101Y005262D02*
X001581Y005262D01*
X001581Y006262D02*
X002101Y006262D01*
X002101Y007262D02*
X001581Y007262D01*
X001581Y008262D02*
X002101Y008262D01*
X002101Y010262D02*
X001581Y010262D01*
X001581Y011262D02*
X002101Y011262D01*
X002101Y012262D02*
X001581Y012262D01*
X001581Y013262D02*
X002101Y013262D01*
X005101Y013262D02*
X005621Y013262D01*
X005621Y012262D02*
X005101Y012262D01*
X005101Y011262D02*
X005621Y011262D01*
X005621Y010262D02*
X005101Y010262D01*
D12*
X007101Y007262D03*
X007101Y005762D03*
X008601Y004262D03*
X009601Y004262D03*
X011101Y005762D03*
X011101Y007262D03*
X013601Y004262D03*
X011101Y013262D03*
X011101Y014762D03*
X010101Y016262D03*
X008101Y016262D03*
X007101Y014762D03*
X007101Y013262D03*
X005601Y014762D03*
X004101Y016262D03*
X001601Y014762D03*
X004601Y004262D03*
X012601Y014762D03*
X014101Y016262D03*
X016601Y014762D03*
D13*
X013351Y017762D03*
X012351Y017762D03*
X012851Y018762D03*
X011851Y018762D03*
X011351Y017762D03*
X013851Y018762D03*
X013851Y002762D03*
X013351Y001762D03*
X012351Y001762D03*
X012851Y002762D03*
X011851Y002762D03*
X011351Y001762D03*
D14*
X009601Y001962D02*
X009601Y002562D01*
X008601Y002562D02*
X008601Y001962D01*
X007601Y001962D02*
X007601Y002562D01*
X006601Y002562D02*
X006601Y001962D01*
X005601Y001962D02*
X005601Y002562D01*
X004601Y002562D02*
X004601Y001962D01*
X004601Y017962D02*
X004601Y018562D01*
X005601Y018562D02*
X005601Y017962D01*
X006601Y017962D02*
X006601Y018562D01*
X007601Y018562D02*
X007601Y017962D01*
X008601Y017962D02*
X008601Y018562D01*
X009601Y018562D02*
X009601Y017962D01*
D15*
X004601Y004262D02*
X001601Y004262D01*
X001101Y004762D01*
X001101Y008762D01*
X001601Y009262D01*
X002101Y009262D01*
X004601Y011762D01*
X007601Y011762D01*
X007601Y010762D02*
X005101Y011262D01*
X005101Y010262D02*
X006101Y010262D01*
X006601Y010262D01*
X011101Y010262D01*
X011601Y010762D01*
X015601Y010762D01*
X016101Y010262D01*
X016101Y011262D02*
X014601Y012762D01*
X011601Y012762D01*
X011101Y013262D01*
X010601Y013262D02*
X007101Y013262D01*
X005101Y013262D01*
X004601Y016262D02*
X004101Y016262D01*
X004601Y016262D02*
X005101Y017262D01*
X004601Y018262D01*
X005601Y018262D02*
X006101Y019262D01*
X011101Y019262D01*
X011601Y018762D01*
X011851Y018762D01*
X012851Y018762D02*
X013101Y018762D01*
X013601Y019262D01*
X014101Y019262D01*
X014601Y018762D01*
X014601Y018262D01*
X013101Y016762D01*
X010601Y016762D01*
X010101Y016262D01*
X010601Y017262D02*
X005101Y017262D01*
X008101Y016262D02*
X008601Y015762D01*
X011601Y015762D01*
X012601Y014762D01*
X014101Y016262D01*
X013101Y018262D02*
X009601Y018262D01*
X010601Y017262D02*
X011101Y017762D01*
X011351Y017762D01*
X013101Y018262D02*
X013601Y018762D01*
X011101Y014762D02*
X010601Y014762D01*
X010601Y013762D01*
X015601Y013762D01*
X016101Y013262D01*
X016101Y011262D02*
X017101Y011262D01*
X017101Y009762D01*
X010601Y009762D01*
X010601Y008762D02*
X011601Y009262D01*
X013601Y009262D01*
X014101Y008762D01*
X014101Y006262D01*
X013101Y006262D01*
X012601Y007262D02*
X011101Y005762D01*
X009601Y005762D02*
X011101Y007262D01*
X009601Y005762D02*
X007101Y005762D01*
X007601Y006762D02*
X008601Y007762D01*
X008601Y009262D01*
X007601Y009762D01*
X007601Y008762D02*
X006601Y009262D01*
X006601Y010262D01*
X006601Y007762D02*
X004601Y007762D01*
X004101Y007262D01*
X002101Y007262D01*
X002601Y006762D02*
X007601Y006762D01*
X007101Y007262D02*
X006601Y007762D01*
X005101Y005262D02*
X005601Y004762D01*
X015601Y004762D01*
X016101Y005262D01*
X012851Y002762D02*
X012601Y002762D01*
X012101Y003262D01*
X010601Y003262D01*
X009601Y004262D01*
X010101Y003262D02*
X005601Y003262D01*
X004601Y004262D01*
X006601Y002262D02*
X007101Y001262D01*
X011601Y001262D01*
X012101Y001762D01*
X012351Y001762D01*
X011351Y001762D02*
X011101Y001762D01*
X010101Y003262D01*
X002601Y006762D02*
X002101Y006262D01*
X010601Y011762D02*
X010601Y013262D01*
X010601Y013762D01*
D16*
X013601Y018762D02*
X013851Y018762D01*
X013101Y007262D02*
X012601Y007262D01*
M02*
