%
M48
M72
T01C0.0320
T02C0.0400
T03C0.1181
%
T01
X4601Y4262
X5101Y5262
X5101Y6262
X5101Y7262
X5101Y8262
X5101Y10262
X5101Y11262
X5101Y12262
X5101Y13262
X5601Y14762
X7101Y14762
X7101Y13262
X7601Y11762
X7601Y10762
X7601Y9762
X7601Y8762
X7101Y7262
X7101Y5762
X8601Y4262
X9601Y4262
X11101Y5762
X11101Y7262
X10601Y8762
X10601Y9762
X10601Y10762
X10601Y11762
X11101Y13262
X11101Y14762
X10101Y16262
X11351Y17762
X11851Y18762
X12851Y18762
X13351Y17762
X12351Y17762
X13851Y18762
X14101Y16262
X12601Y14762
X13101Y13262
X13101Y12262
X13101Y11262
X13101Y10262
X13101Y8262
X13101Y7262
X13101Y6262
X13101Y5262
X13601Y4262
X13851Y2762
X13351Y1762
X12351Y1762
X12851Y2762
X11851Y2762
X11351Y1762
X16101Y5262
X16101Y6262
X16101Y7262
X16101Y8262
X16101Y10262
X16101Y11262
X16101Y12262
X16101Y13262
X16601Y14762
X8101Y16262
X4101Y16262
X1601Y14762
X2101Y13262
X2101Y12262
X2101Y11262
X2101Y10262
X2101Y8262
X2101Y7262
X2101Y6262
X2101Y5262
T02
X4601Y2262
X5601Y2262
X6601Y2262
X7601Y2262
X8601Y2262
X9601Y2262
X9601Y18262
X8601Y18262
X7601Y18262
X6601Y18262
X5601Y18262
X4601Y18262
T03
X2101Y2262
X16601Y2262
X16601Y18262
X2101Y18262
M30
