G75*
G70*
%OFA0B0*%
%FSLAX24Y24*%
%IPPOS*%
%LPD*%
%AMOC8*
5,1,8,0,0,1.08239X$1,22.5*
%
%ADD10C,0.0080*%
%ADD11C,0.0520*%
%ADD12OC8,0.0520*%
%ADD13C,0.0520*%
%ADD14C,0.0600*%
%ADD15C,0.0160*%
%ADD16C,0.0079*%
D10*
X014641Y004105D02*
X014694Y004052D01*
X014801Y004052D01*
X014854Y004105D01*
X014854Y004159D01*
X014801Y004212D01*
X014694Y004212D01*
X014641Y004266D01*
X014641Y004319D01*
X014694Y004372D01*
X014801Y004372D01*
X014854Y004319D01*
X015009Y004372D02*
X015116Y004372D01*
X015062Y004372D02*
X015062Y004052D01*
X015009Y004052D02*
X015116Y004052D01*
X015255Y004052D02*
X015415Y004052D01*
X015468Y004105D01*
X015468Y004319D01*
X015415Y004372D01*
X015255Y004372D01*
X015255Y004052D01*
X015623Y004052D02*
X015623Y004372D01*
X015836Y004372D01*
X015730Y004212D02*
X015623Y004212D01*
X015623Y004052D02*
X015836Y004052D01*
X016360Y004052D02*
X016573Y004052D01*
X016466Y004052D02*
X016466Y004372D01*
X016360Y004266D01*
D11*
X016101Y005262D02*
X016621Y005262D01*
X016621Y006262D02*
X016101Y006262D01*
X016101Y007262D02*
X016621Y007262D01*
X016621Y008262D02*
X016101Y008262D01*
X016101Y010262D02*
X016621Y010262D01*
X016621Y011262D02*
X016101Y011262D01*
X016101Y012262D02*
X016621Y012262D01*
X016621Y013262D02*
X016101Y013262D01*
X013101Y013262D02*
X012581Y013262D01*
X012581Y012262D02*
X013101Y012262D01*
X013101Y011262D02*
X012581Y011262D01*
X012581Y010262D02*
X013101Y010262D01*
X013101Y008262D02*
X012581Y008262D01*
X012581Y007262D02*
X013101Y007262D01*
X013101Y006262D02*
X012581Y006262D01*
X012581Y005262D02*
X013101Y005262D01*
X010861Y008762D02*
X010341Y008762D01*
X010341Y009762D02*
X010861Y009762D01*
X010861Y010762D02*
X010341Y010762D01*
X010341Y011762D02*
X010861Y011762D01*
X007861Y011762D02*
X007341Y011762D01*
X007341Y010762D02*
X007861Y010762D01*
X007861Y009762D02*
X007341Y009762D01*
X007341Y008762D02*
X007861Y008762D01*
X005621Y008262D02*
X005101Y008262D01*
X005101Y007262D02*
X005621Y007262D01*
X005621Y006262D02*
X005101Y006262D01*
X005101Y005262D02*
X005621Y005262D01*
X002101Y005262D02*
X001581Y005262D01*
X001581Y006262D02*
X002101Y006262D01*
X002101Y007262D02*
X001581Y007262D01*
X001581Y008262D02*
X002101Y008262D01*
X002101Y010262D02*
X001581Y010262D01*
X001581Y011262D02*
X002101Y011262D01*
X002101Y012262D02*
X001581Y012262D01*
X001581Y013262D02*
X002101Y013262D01*
X005101Y013262D02*
X005621Y013262D01*
X005621Y012262D02*
X005101Y012262D01*
X005101Y011262D02*
X005621Y011262D01*
X005621Y010262D02*
X005101Y010262D01*
D12*
X007101Y007262D03*
X007101Y005762D03*
X008601Y004262D03*
X009601Y004262D03*
X011101Y005762D03*
X011101Y007262D03*
X013601Y004262D03*
X011101Y013262D03*
X011101Y014762D03*
X010101Y016262D03*
X008101Y016262D03*
X007101Y014762D03*
X007101Y013262D03*
X005601Y014762D03*
X004101Y016262D03*
X001601Y014762D03*
X004601Y004262D03*
X012601Y014762D03*
X014101Y016262D03*
X016601Y014762D03*
D13*
X013351Y017762D03*
X012351Y017762D03*
X012851Y018762D03*
X011851Y018762D03*
X011351Y017762D03*
X013851Y018762D03*
X013851Y002762D03*
X013351Y001762D03*
X012351Y001762D03*
X012851Y002762D03*
X011851Y002762D03*
X011351Y001762D03*
D14*
X004601Y001962D02*
X004601Y002562D01*
X005601Y002562D02*
X005601Y001962D01*
X006601Y001962D02*
X006601Y002562D01*
X007601Y002562D02*
X007601Y001962D01*
X008601Y001962D02*
X008601Y002562D01*
X009601Y002562D02*
X009601Y001962D01*
X009601Y017962D02*
X009601Y018562D01*
X008601Y018562D02*
X008601Y017962D01*
X007601Y017962D02*
X007601Y018562D01*
X006601Y018562D02*
X006601Y017962D01*
X005601Y017962D02*
X005601Y018562D01*
X004601Y018562D02*
X004601Y017962D01*
D15*
X005601Y018262D02*
X005601Y016262D01*
X005601Y014762D01*
X006601Y013762D01*
X006601Y009262D01*
X005101Y008262D01*
X006601Y008262D02*
X007601Y008762D01*
X006601Y008262D02*
X006601Y005262D01*
X005101Y003762D01*
X005101Y001262D01*
X006101Y001262D01*
X006601Y002262D01*
X007601Y002262D02*
X008101Y003262D01*
X009101Y003762D01*
X009601Y004262D01*
X009601Y010262D01*
X010601Y010762D01*
X011601Y010762D02*
X010601Y011762D01*
X011601Y010762D02*
X011601Y007762D01*
X011101Y007262D01*
X011601Y006762D01*
X011601Y005262D01*
X013101Y003762D01*
X012101Y002762D01*
X011851Y002762D01*
X013101Y002262D02*
X013851Y002762D01*
X013101Y002262D02*
X009601Y002262D01*
X008601Y002262D02*
X009101Y001262D01*
X012601Y001262D01*
X013351Y001762D01*
X013101Y003762D02*
X013601Y004262D01*
X016101Y005262D02*
X016601Y005262D01*
X017601Y006262D01*
X017601Y014762D01*
X014101Y018262D01*
X013101Y018262D01*
X012601Y017762D01*
X012351Y017762D01*
X012101Y017762D01*
X010601Y019262D01*
X007101Y019262D01*
X006601Y018262D01*
X007601Y018262D02*
X007601Y017762D01*
X009101Y016262D01*
X010101Y016262D01*
X010101Y013262D01*
X012101Y011262D01*
X013101Y011262D01*
X013601Y010762D01*
X013601Y008762D01*
X016101Y006262D01*
X016101Y008262D02*
X014101Y010262D01*
X014101Y016262D01*
X013601Y016762D02*
X014601Y016762D01*
X016601Y014762D01*
X013601Y012762D02*
X013601Y016762D01*
X013351Y017762D02*
X013101Y017762D01*
X012601Y017262D01*
X009101Y017262D01*
X008601Y018262D01*
X008101Y016262D02*
X005601Y016262D01*
X004101Y016262D02*
X004101Y013262D01*
X002601Y011762D01*
X002601Y008762D01*
X005101Y006262D01*
X007101Y005762D02*
X008101Y004762D01*
X005601Y002262D01*
X008101Y004762D02*
X008601Y004262D01*
X007601Y010762D02*
X008601Y011262D01*
X008601Y013262D01*
X007101Y014762D01*
X002601Y013762D02*
X002601Y012762D01*
X002101Y012262D01*
X002601Y011762D02*
X002101Y011262D01*
X002601Y013762D02*
X001601Y014762D01*
X013101Y012262D02*
X013601Y012762D01*
D16*
X004601Y004262D02*
X004601Y002262D01*
M02*
